<svg viewBox="0 0 24 24" xmlns="http://www.w3.org/2000/svg" width="24" height="24">
    <path d="M12.8 4.2L15.1 2L19.8 6.7L17.5 9L12.8 4.2Z" fill="#94A3B8"/>
    <path d="M15.1 2L16.4 1.2L21 5.8L19.8 6.7L15.1 2Z" fill="#CBD5E1"/>
    <path d="M14.7 7.1L17 9.4L10.2 16.2L7.9 13.9L14.7 7.1Z" fill="#92400E"/>
    <path d="M15.6 8L16.8 9.2L10 16L8.8 14.8L15.6 8Z" fill="#D97706"/>
    <rect x="3" y="14" width="9" height="7" rx="1.3" fill="#15803D"/>
    <path d="M3 14L7.5 11.8L12 14L7.5 16.2L3 14Z" fill="#4ADE80"/>
    <path d="M7.5 16.2L12 14V21H7.5V16.2Z" fill="#22C55E"/>
    <path d="M3 14L7.5 16.2V21H4.2C3.5 21 3 20.5 3 19.8V14Z" fill="#16A34A"/>
    <path d="M5.2 17.2H6.4V18.4H5.2V17.2ZM8.7 17H10.1V18.4H8.7V17Z" fill="#DCFCE7"/>
    <path d="M12.9 12.3L14.2 11M15.1 14.3L17 14M12.4 10.1L12.4 8.7" stroke="#FACC15" stroke-width="1.2" stroke-linecap="round"/>
</svg>
