<svg viewBox="0 0 124 24" xmlns="http://www.w3.org/2000/svg" width="124" height="24">
    <path d="M10.8 4.2L13.1 2L17.8 6.7L15.5 9L10.8 4.2Z" fill="#64748B"/>
    <path d="M13.1 2L14.4 1.2L19 5.8L17.8 6.7L13.1 2Z" fill="#94A3B8"/>
    <path d="M12.7 7.1L15 9.4L8.2 16.2L5.9 13.9L12.7 7.1Z" fill="#92400E"/>
    <path d="M13.6 8L14.8 9.2L8 16L6.8 14.8L13.6 8Z" fill="#D97706"/>
    <rect x="1" y="14" width="9" height="7" rx="1.3" fill="#15803D"/>
    <path d="M1 14L5.5 11.8L10 14L5.5 16.2L1 14Z" fill="#4ADE80"/>
    <path d="M5.5 16.2L10 14V21H5.5V16.2Z" fill="#22C55E"/>
    <path d="M1 14L5.5 16.2V21H2.2C1.5 21 1 20.5 1 19.8V14Z" fill="#16A34A"/>
    <path d="M10.9 12.3L12.2 11M13.1 14.3L15 14M10.4 10.1L10.4 8.7" stroke="#EAB308" stroke-width="1.2" stroke-linecap="round"/>
    <text x="26" y="17" fill="#0F172A" font-family="system-ui, -apple-system, 'Segoe UI', Roboto, sans-serif" font-weight="800" font-size="14">WHACK ME</text>
</svg>
