<svg viewBox="0 0 116 24" xmlns="http://www.w3.org/2000/svg" width="116" height="24">
    <rect x="2" y="5" width="16" height="16" rx="2" fill="#7F1D1D"/>
    <path d="M3 7C4.7 5.8 6.7 5.8 8.4 7C10.1 8.2 12 8.2 13.7 7C15 6.1 16.2 6 17 6.4V11H3V7Z" fill="#DC2626"/>
    <rect x="3" y="11" width="14" height="5" fill="#F8FAFC"/>
    <path d="M3 16H17V19C17 19.6 16.6 20 16 20H4C3.4 20 3 19.6 3 19V16Z" fill="#B91C1C"/>
    <path d="M5 12H7V15H5V12ZM8 12H10V15H8V12ZM11 12H13V15H11V12ZM14 12H16V15H14V12Z" fill="#111827"/>
    <path d="M12.8 4.7C13.9 3.5 15.8 3.7 16.6 5.1" stroke="#FBBF24" stroke-width="1.5" stroke-linecap="round"/>
    <path d="M16.7 4.6L18.6 3.4" stroke="#F97316" stroke-width="1.4" stroke-linecap="round"/>
    <path d="M16.9 5.2L19.2 5.4" stroke="#FDE68A" stroke-width="1.2" stroke-linecap="round"/>
    <text x="28" y="17" fill="#FFFFFF" font-family="system-ui, -apple-system, 'Segoe UI', Roboto, sans-serif" font-weight="800" font-size="14">TNT RUN</text>
</svg>
