<svg
        viewBox="0 0 120 24"
        xmlns="http://www.w3.org/2000/svg"
        width="120"
        height="24"
>
    <g>
        <g>
            <path
                    fill="#7C3AED"
                    d="M12 2c-3 0-5.5 3.5-5.5 8 0 4 2 6.5 5.5 6.5s5.5-2.5 5.5-6.5c0-4.5-2.5-8-5.5-8z"
            />
            <circle cx="12" cy="5" r="1" fill="#A78BFA" />
            <circle cx="10" cy="9" r="0.8" fill="#A78BFA" />
            <circle cx="14.5" cy="8" r="0.8" fill="#A78BFA" />
            <circle cx="12.5" cy="12" r="0.6" fill="#A78BFA" />
        </g>

        <g>
            <path
                    fill="#EA580C"
                    d="M6.5 9C4.2 9 2.5 11.5 2.5 14.5S4 19.5 6.5 19.5 10.5 17.5 10.5 14.5 8.8 9 6.5 9z"
            />
            <circle cx="6.5" cy="12" r="0.8" fill="#FDBA74" />
            <circle cx="4.5" cy="15" r="0.6" fill="#FDBA74" />
            <circle cx="8" cy="16" r="0.7" fill="#FDBA74" />
        </g>

        <g>
            <path
                    fill="#16A34A"
                    d="M17.5 9c-2.3 0-4 2.5-4 5.5s1.5 5 4 5 4-2 4-5-1.7-5.5-4-5.5z"
            />
            <circle cx="17.5" cy="12" r="0.8" fill="#86EFAC" />
            <circle cx="19.5" cy="15" r="0.6" fill="#86EFAC" />
            <circle cx="16" cy="16" r="0.7" fill="#86EFAC" />
        </g>
    </g>

    <text
            x="26"
            y="17"
            fill="#FFFFFF" font-family="system-ui, -apple-system, 'Segoe UI', Roboto, sans-serif"
            font-weight="800"
            font-size="14"
            letter-spacing="-0.5"
    >
        EASTER EGGS
    </text>
</svg>